<svg width="58" height="59" viewBox="0 0 58 59" fill="none" xmlns="http://www.w3.org/2000/svg">
<circle cx="29" cy="29.5" r="29" fill="#FFBC99"/>
<path opacity="0.3" fill-rule="evenodd" clip-rule="evenodd" d="M26.2785 35.3409C25.926 35.5272 25.9067 35.5962 25.8753 36.7858C25.8444 37.9595 25.8114 38.1068 25.508 38.4265C25.3028 38.6429 24.8961 38.8374 24.6474 38.838C24.2486 38.839 23.8887 39.1169 23.8214 39.4757C23.7722 39.7381 23.9181 40.0787 24.146 40.2336C24.4818 40.4618 25.2603 40.3757 25.9034 40.0393C26.2778 39.8433 26.8178 39.3151 27.0349 38.9324C27.3228 38.4249 27.3985 37.9951 27.3985 36.8698C27.3985 35.9742 27.3886 35.8597 27.2941 35.6645C27.2183 35.5079 27.1306 35.4203 26.974 35.3444C26.7089 35.2161 26.5165 35.2151 26.2785 35.3409ZM28.6455 35.3549C28.2588 35.5766 28.2601 35.5681 28.2602 37.7987C28.2603 40.0038 28.2613 40.0112 28.6097 40.2439C28.9706 40.485 29.4953 40.3437 29.6918 39.9525C29.7717 39.7936 29.7804 39.5801 29.7805 37.7987C29.7806 35.9704 29.7735 35.808 29.6866 35.6447C29.5724 35.4301 29.261 35.2417 29.0204 35.2417C28.9228 35.2417 28.7541 35.2926 28.6455 35.3549ZM31.0629 35.3454C30.9109 35.4207 30.8203 35.5122 30.7461 35.6655C30.6522 35.8595 30.6422 35.9756 30.6422 36.8698C30.6422 37.9951 30.718 38.4249 31.0058 38.9324C31.2229 39.3151 31.7629 39.8433 32.1373 40.0393C32.7804 40.3757 33.5589 40.4618 33.8947 40.2336C34.1226 40.0787 34.2686 39.7381 34.2193 39.4757C34.152 39.1169 33.7921 38.839 33.3933 38.838C33.1446 38.8374 32.738 38.6429 32.5327 38.4265C32.2293 38.1068 32.1963 37.9595 32.1654 36.7858C32.1339 35.59 32.1149 35.5239 31.7515 35.3385C31.5043 35.2124 31.3281 35.2142 31.0629 35.3454Z" fill="#2C2B46"/>
<path fill-rule="evenodd" clip-rule="evenodd" d="M18.5377 20.6668C18.3893 20.7027 18.0725 20.8289 17.8338 20.9472C17.0765 21.3225 16.5031 21.9943 16.1898 22.8736L16.0724 23.203L16.057 27.3402C16.0396 31.9962 16.0328 31.8928 16.407 32.6552C16.8004 33.4567 17.5938 34.1091 18.4782 34.3583C18.6433 34.4048 19.072 34.4484 19.5299 34.4651L20.3028 34.4934L20.3035 33.3842C20.3044 32.1209 20.3491 31.84 20.6459 31.2361C20.9194 30.6796 21.5013 30.105 22.0766 29.8234C22.8432 29.4481 22.5358 29.464 29.0201 29.464C35.5044 29.464 35.197 29.4481 35.9636 29.8234C36.5389 30.105 37.1209 30.6796 37.3943 31.2361C37.6911 31.84 37.7358 32.1209 37.7367 33.3842L37.7375 34.4934L38.5104 34.4651C38.9682 34.4484 39.3969 34.4048 39.562 34.3583C40.4464 34.1091 41.2399 33.4567 41.6332 32.6552C42.0074 31.8928 42.0006 31.9962 41.9832 27.3402L41.9678 23.203L41.8504 22.8736C41.5279 21.9686 40.957 21.3113 40.1618 20.9298C39.9016 20.8049 39.5678 20.6781 39.4202 20.6478C38.9983 20.5615 18.8974 20.5798 18.5377 20.6668ZM34.5252 23.6116C34.8871 23.8822 34.988 24.2726 34.7865 24.6221C34.5917 24.96 34.4345 25.0082 33.5815 24.9914C32.9389 24.9787 32.8297 24.9642 32.7121 24.8755C32.3522 24.6043 32.2936 24.1207 32.577 23.7604C32.7665 23.5194 32.9295 23.4805 33.692 23.4945C34.3016 23.5056 34.4023 23.5197 34.5252 23.6116ZM38.1419 23.5705C38.2389 23.6192 38.372 23.739 38.4378 23.8365C38.6008 24.0784 38.5782 24.5295 38.3931 24.7276C38.1637 24.9732 38.0472 25.0022 37.2914 25.0022C36.6432 25.0022 36.573 24.993 36.4145 24.8872C35.9285 24.5624 35.9712 23.8418 36.4919 23.5841C36.7772 23.4429 37.8699 23.4339 38.1419 23.5705ZM23.1973 31.0375C22.7019 31.1348 22.1752 31.5536 21.9654 32.017C21.8569 32.2566 21.8474 32.3541 21.8323 33.3775L21.8161 34.4798H29.0201H36.2241L36.2079 33.3775C36.1928 32.3541 36.1833 32.2566 36.0748 32.017C35.9412 31.7218 35.5769 31.3438 35.2782 31.1905C35.166 31.1329 34.952 31.0626 34.8024 31.0343C34.4661 30.9705 23.523 30.9735 23.1973 31.0375Z" fill="#2C2B46"/>
</svg>
