<svg width="58" height="59" viewBox="0 0 58 59" fill="none" xmlns="http://www.w3.org/2000/svg">
<circle cx="29" cy="29.5" r="29" fill="#B1E5FC"/>
<path opacity="0.3" fill-rule="evenodd" clip-rule="evenodd" d="M27.284 22.9359C26.9229 23.0263 26.6526 23.1806 26.3803 23.4518C26.0999 23.7312 25.9304 24.0389 25.8523 24.4102C25.8233 24.5477 25.8044 25.1364 25.8044 25.9005V27.1635H32.8805H39.9565V25.9005C39.9565 25.1211 39.9379 24.5504 39.9079 24.4102C39.7498 23.6716 39.1558 23.0773 38.4213 22.9228C38.0774 22.8504 27.576 22.8628 27.284 22.9359ZM34.4683 24.4623C34.6586 24.5594 34.8103 24.8064 34.8103 25.0192C34.8103 25.347 34.4932 25.6625 34.1638 25.6625C33.9644 25.6625 33.6994 25.4957 33.6051 25.3107C33.4467 25.0003 33.5461 24.6614 33.8494 24.4778C34.0547 24.3535 34.2457 24.3487 34.4683 24.4623ZM37.0414 24.4623C37.2317 24.5594 37.3834 24.8064 37.3834 25.0192C37.3834 25.347 37.0663 25.6625 36.7369 25.6625C36.5375 25.6625 36.2725 25.4957 36.1782 25.3107C36.0198 25.0003 36.1192 24.6614 36.4225 24.4778C36.6278 24.3535 36.8188 24.3487 37.0414 24.4623Z" fill="#2C2B46"/>
<path fill-rule="evenodd" clip-rule="evenodd" d="M19.4795 18.5614C19.1184 18.6518 18.8481 18.8061 18.5759 19.0773C18.2954 19.3567 18.1259 19.6644 18.0478 20.0357C18.0153 20.1903 18 21.2162 18 23.2414V26.2198H21.2593H24.5185V25.3603C24.5185 24.41 24.5705 24.0396 24.7709 23.5601C25.0813 22.8178 25.7334 22.1648 26.4818 21.8469C27.0495 21.6057 27.2439 21.5882 29.3627 21.5882H31.2943V20.9256C31.2943 20.5612 31.2725 20.1607 31.2457 20.0357C31.0876 19.2971 30.4937 18.7028 29.7591 18.5483C29.4159 18.4761 19.7713 18.4884 19.4795 18.5614ZM21.5177 22.0176C21.6267 22.0732 21.7177 22.1643 21.7733 22.2733C21.8524 22.4284 21.8596 22.5249 21.8596 23.4323C21.8596 24.3396 21.8524 24.4361 21.7733 24.5913C21.6757 24.7826 21.4289 24.9332 21.2132 24.9332C21.0137 24.9332 20.7488 24.7665 20.6545 24.5815C20.5813 24.4381 20.5733 24.3214 20.5749 23.4233C20.5769 22.2914 20.5942 22.2175 20.8987 22.0331C21.1041 21.9089 21.2951 21.9041 21.5177 22.0176ZM18 33.1007C18 37.1091 18.0138 38.7595 18.0486 38.9224C18.2063 39.6591 18.7985 40.2513 19.5352 40.409C19.691 40.4423 20.6116 40.4576 22.4616 40.4576H25.1607L25.0117 40.2246C24.8589 39.9858 24.7323 39.7003 24.611 39.3212C24.5499 39.1298 24.541 38.481 24.5295 33.3065L24.5164 27.5063H21.2582H18V33.1007ZM25.8051 33.5725C25.8051 37.2292 25.819 38.7601 25.8537 38.9224C26.0114 39.6591 26.6035 40.2513 27.3403 40.409C27.6592 40.4772 38.0981 40.4779 38.4219 40.4097C39.1496 40.2565 39.7574 39.6488 39.9095 38.9224C39.9428 38.7632 39.9571 37.1598 39.9571 33.5725V28.4498H32.8811H25.8051V33.5725ZM21.5177 28.8792C21.6267 28.9348 21.7177 29.0259 21.7733 29.1349C21.8559 29.2967 21.8596 29.3846 21.8596 31.1516C21.8596 32.9185 21.8559 33.0064 21.7733 33.1683C21.6757 33.3596 21.4289 33.5102 21.2132 33.5102C21.0137 33.5102 20.7488 33.3435 20.6545 33.1585C20.5782 33.009 20.5732 32.8827 20.5749 31.1426C20.5769 29.0531 20.5712 29.093 20.8987 28.8947C21.1041 28.7705 21.2951 28.7657 21.5177 28.8792ZM33.8889 29.8622C35.3179 30.2349 36.4378 31.3614 36.8332 32.8241C36.9148 33.1256 36.9318 33.296 36.9318 33.8104C36.9318 34.3248 36.9148 34.4952 36.8332 34.7968C36.4381 36.2584 35.3336 37.3707 33.8889 37.7622C33.3812 37.8997 32.406 37.8995 31.8947 37.7617C30.4294 37.3667 29.3279 36.2707 28.9272 34.809C28.7953 34.3278 28.7953 33.293 28.9272 32.8119C29.3703 31.1953 30.6723 30.0342 32.345 29.7642C32.6423 29.7162 33.5503 29.7738 33.8889 29.8622ZM32.2807 31.0896C31.5109 31.2549 30.7501 31.8523 30.3996 32.5668C30.1982 32.9771 30.0951 33.3984 30.0951 33.8104C30.0951 34.8357 30.7205 35.8421 31.6374 36.292C32.4632 36.6972 33.299 36.6972 34.1248 36.292C34.8487 35.9368 35.4395 35.1769 35.6043 34.3894C35.7355 33.7622 35.6564 33.1654 35.3626 32.5668C35.1117 32.0553 34.6362 31.5799 34.1248 31.3289C33.5283 31.0362 32.9055 30.9554 32.2807 31.0896Z" fill="#2C2B46"/>
</svg>
