<svg width="58" height="59" viewBox="0 0 58 59" fill="none" xmlns="http://www.w3.org/2000/svg">
<circle cx="29" cy="29.5" r="29" fill="#CABDFF"/>
<path opacity="0.3" fill-rule="evenodd" clip-rule="evenodd" d="M37.4278 18.7924L35.6456 19.384V23.1829V26.9818L37.4237 27.5729C38.9384 28.0764 39.2314 28.1607 39.4016 28.1415C39.6385 28.1147 39.798 28.0063 39.9116 27.7945C39.9907 27.6469 39.9946 27.4347 39.9946 23.1734V18.7072L39.8937 18.5589C39.8382 18.4774 39.7406 18.3721 39.6768 18.3249C39.4286 18.141 39.3259 18.1624 37.4278 18.7924Z" fill="#2C2B46"/>
<path fill-rule="evenodd" clip-rule="evenodd" d="M21.7958 17.6427C21.3241 17.7253 20.6008 17.9653 20.1702 18.1822C19.1217 18.7102 18.126 19.7029 17.6105 20.7341C16.5653 22.8252 16.9972 25.4162 18.6706 27.0947C19.6722 28.0994 20.9265 28.6759 22.3395 28.7808C23.1454 28.8407 22.6431 28.9183 31.1618 27.4167C32.777 27.1319 34.1438 26.8885 34.1993 26.8756L34.3002 26.8523V23.1767C34.3002 21.1552 34.2842 19.5012 34.2647 19.5012C34.2451 19.5012 31.8291 19.0757 28.8958 18.5558C23.7494 17.6436 23.5381 17.6098 22.8675 17.5936C22.387 17.5819 22.0562 17.5971 21.7958 17.6427ZM23.1618 21.1188C23.5507 21.1896 23.9715 21.4126 24.2571 21.6992C25.0882 22.5334 25.0899 23.8317 24.2609 24.6607C23.4272 25.4944 22.1284 25.4944 21.2947 24.6607C20.7628 24.1288 20.5655 23.4274 20.7397 22.6883C20.9198 21.9241 21.5523 21.3051 22.3295 21.1326C22.647 21.0621 22.8336 21.059 23.1618 21.1188ZM22.5359 22.4619C22.3678 22.5122 22.1555 22.7131 22.0774 22.8959C21.8733 23.3728 22.2471 23.937 22.7684 23.939C23.2536 23.9409 23.6111 23.5037 23.5203 23.0196C23.4804 22.8066 23.217 22.5192 23.0088 22.4614C22.8178 22.4083 22.7146 22.4084 22.5359 22.4619ZM24.885 29.8775L22.5312 30.2913L22.5456 30.3996C22.621 30.9705 23.3406 34.9558 23.3999 35.1316C23.5184 35.4827 23.7591 35.8495 24.0459 36.116C24.3297 36.3797 24.8403 36.6502 25.1467 36.6992C25.3645 36.734 25.3587 36.7247 25.5104 37.278C25.8411 38.4835 26.8001 39.5589 27.9685 40.0342C28.5676 40.2778 28.838 40.3252 29.615 40.3224C30.2606 40.32 30.3718 40.3077 30.7261 40.1997C32.2334 39.7402 33.3046 38.6309 33.7247 37.0945C33.8129 36.7718 33.824 36.5929 33.848 35.1035C33.874 33.4869 33.8755 33.465 33.9794 33.298C34.1187 33.074 34.3219 32.9245 34.5812 32.8551C34.9627 32.7531 35.3808 32.9335 35.6074 33.298L35.7125 33.4671L35.7349 36.6987L35.7573 39.9303L35.8801 40.0912C36.0246 40.2807 36.2539 40.3695 36.5097 40.3352C36.7308 40.3055 36.8869 40.1949 36.997 39.9897C37.0755 39.8433 37.0799 39.6651 37.0799 36.6868C37.0799 34.5617 37.0638 33.4615 37.0304 33.3011C36.9419 32.8766 36.7337 32.5072 36.3891 32.1633C35.8085 31.5837 35.0662 31.3614 34.3081 31.5401C33.5274 31.7242 32.9108 32.2699 32.6298 33.0255C32.5384 33.2714 32.5307 33.3906 32.5054 34.9466C32.4799 36.5089 32.4725 36.6237 32.3766 36.9193C32.0752 37.8481 31.3895 38.5467 30.4568 38.8751C30.0497 39.0185 29.3901 39.0386 28.9281 38.9218C27.8728 38.6549 27.0986 37.9209 26.7955 36.8999C26.6958 36.5639 26.6987 36.5525 26.9138 36.443C27.0186 36.3896 27.2474 36.2026 27.4223 36.0274C27.8043 35.6447 28.0031 35.2616 28.096 34.7296C28.1733 34.2866 28.1832 34.366 27.7088 31.618C27.5119 30.4777 27.3509 29.5244 27.3509 29.4995C27.3509 29.4398 27.5462 29.4098 24.885 29.8775Z" fill="#2C2B46"/>
</svg>
