<svg width="21" height="23" viewBox="0 0 21 23" fill="none" xmlns="http://www.w3.org/2000/svg">
<g opacity="0.6">
<path d="M4.01247 1.91663L0.999969 5.93329V19.9916C0.999969 20.5243 1.21156 21.0351 1.5882 21.4117C1.96483 21.7884 2.47566 22 3.0083 22H17.0666C17.5993 22 18.1101 21.7884 18.4867 21.4117C18.8634 21.0351 19.075 20.5243 19.075 19.9916V5.93329L16.0625 1.91663H4.01247Z" fill="#5E5E5E" stroke="#5E5E5E" stroke-width="2" stroke-linecap="round" stroke-linejoin="round"/>
<path d="M17.5374 6H2.53745L5.05364 3.31606C5.24269 3.11441 5.50677 3 5.78318 3H14.2917C14.5681 3 14.8322 3.11441 15.0213 3.31606L17.5374 6Z" fill="white"/>
<path d="M14.0542 9.94995C14.0542 11.0152 13.631 12.0369 12.8777 12.7902C12.1244 13.5434 11.1028 13.9666 10.0375 13.9666C8.97221 13.9666 7.95055 13.5434 7.19728 12.7902C6.44401 12.0369 6.02083 11.0152 6.02083 9.94995" fill="#5E5E5E"/>
<path d="M14.0542 9.94995C14.0542 11.0152 13.631 12.0369 12.8777 12.7902C12.1244 13.5434 11.1028 13.9666 10.0375 13.9666C8.97221 13.9666 7.95055 13.5434 7.19728 12.7902C6.44401 12.0369 6.02083 11.0152 6.02083 9.94995" stroke="white" stroke-width="2" stroke-linecap="round" stroke-linejoin="round"/>
</g>
</svg>
