<svg width="22" height="22" viewBox="0 0 22 22" fill="none" xmlns="http://www.w3.org/2000/svg">
<path d="M11 0C8.89394 0 6.87404 1.00576 5.38478 2.79594C3.89551 4.58612 3.05881 7.01416 3.05881 9.54576V13.036C3.05881 14.171 2.60734 14.6501 1.76613 15.5429L1.6372 15.6802C1.21123 16.1335 0.644204 16.762 0.305169 17.6582C-0.0579713 18.6185 -0.102139 19.7114 0.200193 20.9832C0.343272 21.585 0.801279 22 1.32212 22H3.05881H19.4081H20.6784C21.199 22 21.6567 21.585 21.7998 20.9832C22.1021 19.7114 22.058 18.6185 21.6948 17.6582C21.3558 16.762 20.7888 16.1335 20.3628 15.6802L20.2339 15.5429C19.3927 14.6501 18.9412 14.171 18.9412 13.036V9.54576C18.9412 7.01416 18.1045 4.58612 16.6152 2.79594C15.126 1.00576 13.1062 0 11 0ZM10.8865 2.80417C9.50638 2.80417 8.12116 3.47212 7.09084 4.90318C6.06425 6.32919 5.44325 8.43568 5.44325 11.2167C5.44325 11.7328 5.79146 12.1514 6.22086 12.1514C6.65025 12.1514 6.99846 11.7328 6.99846 11.2167C6.99846 8.76321 7.54387 7.13081 8.26688 6.12654C8.98617 5.12733 9.93375 4.67361 10.8865 4.67361C11.3159 4.67361 11.6641 4.25504 11.6641 3.73889C11.6641 3.22274 11.3159 2.80417 10.8865 2.80417Z" fill="#DADADA"/>
</svg>
