<svg width="21" height="22" viewBox="0 0 21 22" fill="none" xmlns="http://www.w3.org/2000/svg">
<g opacity="0.6">
<path fill-rule="evenodd" clip-rule="evenodd" d="M1.61957 14.5238C2.65657 13.4415 4.06304 12.8334 5.52957 12.8334H14.6371C16.1036 12.8334 17.5101 13.4415 18.5471 14.5238C19.5841 15.6062 20.1667 17.0743 20.1667 18.605V20.4723C20.1667 21.316 19.5113 22 18.703 22H1.46371C0.655326 22 0 21.316 0 20.4723V18.605C0 17.0743 0.582578 15.6062 1.61957 14.5238Z" fill="#5E5E5E"/>
<path fill-rule="evenodd" clip-rule="evenodd" d="M4.58331 5.5C4.58331 2.46243 7.04575 0 10.0833 0C13.1209 0 15.5833 2.46243 15.5833 5.5C15.5833 8.53757 13.1209 11 10.0833 11C7.04575 11 4.58331 8.53757 4.58331 5.5Z" fill="#5E5E5E"/>
</g>
</svg>
